<svg width="101" height="18" viewBox="0 0 101 18" fill="none" xmlns="http://www.w3.org/2000/svg">
<path d="M9.408 4.696V13H8.316V6.808L5.556 13H4.788L2.016 6.796V13H0.924V4.696H2.1L5.172 11.56L8.244 4.696H9.408ZM11.8239 5.356C11.6159 5.356 11.4399 5.284 11.2959 5.14C11.1519 4.996 11.0799 4.82 11.0799 4.612C11.0799 4.404 11.1519 4.228 11.2959 4.084C11.4399 3.94 11.6159 3.868 11.8239 3.868C12.0239 3.868 12.1919 3.94 12.3279 4.084C12.4719 4.228 12.5439 4.404 12.5439 4.612C12.5439 4.82 12.4719 4.996 12.3279 5.14C12.1919 5.284 12.0239 5.356 11.8239 5.356ZM12.3519 6.424V13H11.2599V6.424H12.3519ZM17.4171 6.304C18.2171 6.304 18.8651 6.548 19.3611 7.036C19.8571 7.516 20.1051 8.212 20.1051 9.124V13H19.0251V9.28C19.0251 8.624 18.8611 8.124 18.5331 7.78C18.2051 7.428 17.7571 7.252 17.1891 7.252C16.6131 7.252 16.1531 7.432 15.8091 7.792C15.4731 8.152 15.3051 8.676 15.3051 9.364V13H14.2131V6.424H15.3051V7.36C15.5211 7.024 15.8131 6.764 16.1811 6.58C16.5571 6.396 16.9691 6.304 17.4171 6.304ZM25.1528 6.304C25.6488 6.304 26.0968 6.412 26.4968 6.628C26.8968 6.836 27.2088 7.152 27.4328 7.576C27.6648 8 27.7808 8.516 27.7808 9.124V13H26.7008V9.28C26.7008 8.624 26.5368 8.124 26.2088 7.78C25.8808 7.428 25.4328 7.252 24.8648 7.252C24.2888 7.252 23.8288 7.432 23.4848 7.792C23.1488 8.152 22.9808 8.676 22.9808 9.364V13H21.8888V4.12H22.9808V7.36C23.1968 7.024 23.4928 6.764 23.8688 6.58C24.2528 6.396 24.6808 6.304 25.1528 6.304ZM29.1566 9.688C29.1566 9.016 29.2926 8.428 29.5646 7.924C29.8366 7.412 30.2086 7.016 30.6806 6.736C31.1606 6.456 31.6926 6.316 32.2766 6.316C32.8526 6.316 33.3526 6.44 33.7766 6.688C34.2006 6.936 34.5166 7.248 34.7246 7.624V6.424H35.8286V13H34.7246V11.776C34.5086 12.16 34.1846 12.48 33.7526 12.736C33.3286 12.984 32.8326 13.108 32.2646 13.108C31.6806 13.108 31.1526 12.964 30.6806 12.676C30.2086 12.388 29.8366 11.984 29.5646 11.464C29.2926 10.944 29.1566 10.352 29.1566 9.688ZM34.7246 9.7C34.7246 9.204 34.6246 8.772 34.4246 8.404C34.2246 8.036 33.9526 7.756 33.6086 7.564C33.2726 7.364 32.9006 7.264 32.4926 7.264C32.0846 7.264 31.7126 7.36 31.3766 7.552C31.0406 7.744 30.7726 8.024 30.5726 8.392C30.3726 8.76 30.2726 9.192 30.2726 9.688C30.2726 10.192 30.3726 10.632 30.5726 11.008C30.7726 11.376 31.0406 11.66 31.3766 11.86C31.7126 12.052 32.0846 12.148 32.4926 12.148C32.9006 12.148 33.2726 12.052 33.6086 11.86C33.9526 11.66 34.2246 11.376 34.4246 11.008C34.6246 10.632 34.7246 10.196 34.7246 9.7ZM40.002 13.108C39.498 13.108 39.046 13.024 38.646 12.856C38.246 12.68 37.93 12.44 37.698 12.136C37.466 11.824 37.338 11.468 37.314 11.068H38.442C38.474 11.396 38.626 11.664 38.898 11.872C39.178 12.08 39.542 12.184 39.99 12.184C40.406 12.184 40.734 12.092 40.974 11.908C41.214 11.724 41.334 11.492 41.334 11.212C41.334 10.924 41.206 10.712 40.95 10.576C40.694 10.432 40.298 10.292 39.762 10.156C39.274 10.028 38.874 9.9 38.562 9.772C38.258 9.636 37.994 9.44 37.77 9.184C37.554 8.92 37.446 8.576 37.446 8.152C37.446 7.816 37.546 7.508 37.746 7.228C37.946 6.948 38.23 6.728 38.598 6.568C38.966 6.4 39.386 6.316 39.858 6.316C40.586 6.316 41.174 6.5 41.622 6.868C42.07 7.236 42.31 7.74 42.342 8.38H41.25C41.226 8.036 41.086 7.76 40.83 7.552C40.582 7.344 40.246 7.24 39.822 7.24C39.43 7.24 39.118 7.324 38.886 7.492C38.654 7.66 38.538 7.88 38.538 8.152C38.538 8.368 38.606 8.548 38.742 8.692C38.886 8.828 39.062 8.94 39.27 9.028C39.486 9.108 39.782 9.2 40.158 9.304C40.63 9.432 41.014 9.56 41.31 9.688C41.606 9.808 41.858 9.992 42.066 10.24C42.282 10.488 42.394 10.812 42.402 11.212C42.402 11.572 42.302 11.896 42.102 12.184C41.902 12.472 41.618 12.7 41.25 12.868C40.89 13.028 40.474 13.108 40.002 13.108Z" fill="#00b490"/>
<path d="M51.652 4.636V5.524H48.016V8.344H50.968V9.232H48.016V13H46.924V4.636H51.652ZM53.5349 5.356C53.3269 5.356 53.1509 5.284 53.0069 5.14C52.8629 4.996 52.7909 4.82 52.7909 4.612C52.7909 4.404 52.8629 4.228 53.0069 4.084C53.1509 3.94 53.3269 3.868 53.5349 3.868C53.7349 3.868 53.9029 3.94 54.0389 4.084C54.1829 4.228 54.2549 4.404 54.2549 4.612C54.2549 4.82 54.1829 4.996 54.0389 5.14C53.9029 5.284 53.7349 5.356 53.5349 5.356ZM54.0629 6.424V13H52.9709V6.424H54.0629ZM59.128 6.304C59.928 6.304 60.576 6.548 61.072 7.036C61.568 7.516 61.816 8.212 61.816 9.124V13H60.736V9.28C60.736 8.624 60.572 8.124 60.244 7.78C59.916 7.428 59.468 7.252 58.9 7.252C58.324 7.252 57.864 7.432 57.52 7.792C57.184 8.152 57.016 8.676 57.016 9.364V13H55.924V6.424H57.016V7.36C57.232 7.024 57.524 6.764 57.892 6.58C58.268 6.396 58.68 6.304 59.128 6.304ZM63.1918 9.688C63.1918 9.016 63.3278 8.428 63.5998 7.924C63.8718 7.412 64.2438 7.016 64.7158 6.736C65.1958 6.456 65.7278 6.316 66.3118 6.316C66.8878 6.316 67.3878 6.44 67.8118 6.688C68.2358 6.936 68.5518 7.248 68.7598 7.624V6.424H69.8638V13H68.7598V11.776C68.5438 12.16 68.2198 12.48 67.7878 12.736C67.3638 12.984 66.8678 13.108 66.2998 13.108C65.7158 13.108 65.1878 12.964 64.7158 12.676C64.2438 12.388 63.8718 11.984 63.5998 11.464C63.3278 10.944 63.1918 10.352 63.1918 9.688ZM68.7598 9.7C68.7598 9.204 68.6598 8.772 68.4598 8.404C68.2598 8.036 67.9878 7.756 67.6438 7.564C67.3078 7.364 66.9358 7.264 66.5278 7.264C66.1198 7.264 65.7478 7.36 65.4118 7.552C65.0758 7.744 64.8078 8.024 64.6078 8.392C64.4078 8.76 64.3078 9.192 64.3078 9.688C64.3078 10.192 64.4078 10.632 64.6078 11.008C64.8078 11.376 65.0758 11.66 65.4118 11.86C65.7478 12.052 66.1198 12.148 66.5278 12.148C66.9358 12.148 67.3078 12.052 67.6438 11.86C67.9878 11.66 68.2598 11.376 68.4598 11.008C68.6598 10.632 68.7598 10.196 68.7598 9.7ZM74.9132 6.304C75.7132 6.304 76.3612 6.548 76.8572 7.036C77.3532 7.516 77.6012 8.212 77.6012 9.124V13H76.5212V9.28C76.5212 8.624 76.3572 8.124 76.0292 7.78C75.7012 7.428 75.2532 7.252 74.6852 7.252C74.1092 7.252 73.6492 7.432 73.3052 7.792C72.9692 8.152 72.8012 8.676 72.8012 9.364V13H71.7092V6.424H72.8012V7.36C73.0172 7.024 73.3092 6.764 73.6772 6.58C74.0532 6.396 74.4652 6.304 74.9132 6.304ZM82.1809 12.184C82.6609 12.184 83.0609 12.072 83.3809 11.848C83.7009 11.624 83.9209 11.304 84.0409 10.888H85.2169C85.0569 11.512 84.7409 12.024 84.2689 12.424C83.8049 12.816 83.2209 13.04 82.5169 13.096V13.696C82.9889 13.688 83.3649 13.788 83.6449 13.996C83.9249 14.204 84.0649 14.5 84.0649 14.884C84.0649 15.26 83.9289 15.56 83.6569 15.784C83.3849 16.008 83.0329 16.12 82.6009 16.12H81.2209V15.412H82.3849C82.6489 15.412 82.8409 15.372 82.9609 15.292C83.0889 15.212 83.1529 15.076 83.1529 14.884C83.1529 14.7 83.0889 14.568 82.9609 14.488C82.8409 14.408 82.6489 14.368 82.3849 14.368H81.7849V13.084C81.2329 13.028 80.7449 12.856 80.3209 12.568C79.8969 12.272 79.5649 11.88 79.3249 11.392C79.0929 10.896 78.9769 10.332 78.9769 9.7C78.9769 9.02 79.1129 8.428 79.3849 7.924C79.6569 7.412 80.0329 7.016 80.5129 6.736C81.0009 6.456 81.5569 6.316 82.1809 6.316C82.9889 6.316 83.6529 6.512 84.1729 6.904C84.7009 7.296 85.0489 7.84 85.2169 8.536H84.0409C83.9289 8.136 83.7089 7.82 83.3809 7.588C83.0609 7.356 82.6609 7.24 82.1809 7.24C81.5569 7.24 81.0529 7.456 80.6689 7.888C80.2849 8.312 80.0929 8.916 80.0929 9.7C80.0929 10.492 80.2849 11.104 80.6689 11.536C81.0529 11.968 81.5569 12.184 82.1809 12.184ZM86.266 9.688C86.266 9.016 86.402 8.428 86.674 7.924C86.946 7.412 87.318 7.016 87.79 6.736C88.27 6.456 88.802 6.316 89.386 6.316C89.962 6.316 90.462 6.44 90.886 6.688C91.31 6.936 91.626 7.248 91.834 7.624V6.424H92.938V13H91.834V11.776C91.618 12.16 91.294 12.48 90.862 12.736C90.438 12.984 89.942 13.108 89.374 13.108C88.79 13.108 88.262 12.964 87.79 12.676C87.318 12.388 86.946 11.984 86.674 11.464C86.402 10.944 86.266 10.352 86.266 9.688ZM91.834 9.7C91.834 9.204 91.734 8.772 91.534 8.404C91.334 8.036 91.062 7.756 90.718 7.564C90.382 7.364 90.01 7.264 89.602 7.264C89.194 7.264 88.822 7.36 88.486 7.552C88.15 7.744 87.882 8.024 87.682 8.392C87.482 8.76 87.382 9.192 87.382 9.688C87.382 10.192 87.482 10.632 87.682 11.008C87.882 11.376 88.15 11.66 88.486 11.86C88.822 12.052 89.194 12.148 89.602 12.148C90.01 12.148 90.382 12.052 90.718 11.86C91.062 11.66 91.334 11.376 91.534 11.008C91.734 10.632 91.834 10.196 91.834 9.7ZM97.1114 13.108C96.6074 13.108 96.1554 13.024 95.7554 12.856C95.3554 12.68 95.0394 12.44 94.8074 12.136C94.5754 11.824 94.4474 11.468 94.4234 11.068H95.5514C95.5834 11.396 95.7354 11.664 96.0074 11.872C96.2874 12.08 96.6514 12.184 97.0994 12.184C97.5154 12.184 97.8434 12.092 98.0834 11.908C98.3234 11.724 98.4434 11.492 98.4434 11.212C98.4434 10.924 98.3154 10.712 98.0594 10.576C97.8034 10.432 97.4074 10.292 96.8714 10.156C96.3834 10.028 95.9834 9.9 95.6714 9.772C95.3674 9.636 95.1034 9.44 94.8794 9.184C94.6634 8.92 94.5554 8.576 94.5554 8.152C94.5554 7.816 94.6554 7.508 94.8554 7.228C95.0554 6.948 95.3394 6.728 95.7074 6.568C96.0754 6.4 96.4954 6.316 96.9674 6.316C97.6954 6.316 98.2834 6.5 98.7314 6.868C99.1794 7.236 99.4194 7.74 99.4514 8.38H98.3594C98.3354 8.036 98.1954 7.76 97.9394 7.552C97.6914 7.344 97.3554 7.24 96.9314 7.24C96.5394 7.24 96.2274 7.324 95.9954 7.492C95.7634 7.66 95.6474 7.88 95.6474 8.152C95.6474 8.368 95.7154 8.548 95.8514 8.692C95.9954 8.828 96.1714 8.94 96.3794 9.028C96.5954 9.108 96.8914 9.2 97.2674 9.304C97.7394 9.432 98.1234 9.56 98.4194 9.688C98.7154 9.808 98.9674 9.992 99.1754 10.24C99.3914 10.488 99.5034 10.812 99.5114 11.212C99.5114 11.572 99.4114 11.896 99.2114 12.184C99.0114 12.472 98.7274 12.7 98.3594 12.868C97.9994 13.028 97.5834 13.108 97.1114 13.108Z" fill="#202224"/>
</svg>
